<svg width="130" height="123" viewBox="0 0 130 123" fill="none" xmlns="http://www.w3.org/2000/svg">
<path d="M64.9999 29.6742C68.1215 29.6742 70.6521 27.2993 70.6521 24.3698C70.6521 21.4403 68.1215 19.0654 64.9999 19.0654C61.8782 19.0654 59.3477 21.4403 59.3477 24.3698C59.3477 27.2993 61.8782 29.6742 64.9999 29.6742Z" fill="#87DFD6"/>
<path d="M127.175 56.1958H115.87V88.0218H127.175V56.1958Z" fill="#87DFD6"/>
<path d="M14.1306 56.1958H2.82617V88.0218H14.1306V56.1958Z" fill="#87DFD6"/>
<path d="M42.5803 40.2827H25.4353H14.1309V103.935H115.87V40.2827H42.5803Z" fill="#DFF5F2"/>
<path d="M42.3915 72.1088C45.5131 72.1088 48.0437 69.7339 48.0437 66.8044C48.0437 63.8748 45.5131 61.5 42.3915 61.5C39.2698 61.5 36.7393 63.8748 36.7393 66.8044C36.7393 69.7339 39.2698 72.1088 42.3915 72.1088Z" fill="#87DFD6"/>
<path d="M87.6083 72.1088C90.7299 72.1088 93.2605 69.7339 93.2605 66.8044C93.2605 63.8748 90.7299 61.5 87.6083 61.5C84.4866 61.5 81.9561 63.8748 81.9561 66.8044C81.9561 69.7339 84.4866 72.1088 87.6083 72.1088Z" fill="#87DFD6"/>
<path d="M31.3983 41.2958C31.4688 41.4576 31.5564 41.6116 31.6583 41.7548C31.7601 41.9006 31.8787 42.0359 32.0087 42.1579C32.1387 42.2799 32.2829 42.3912 32.4383 42.4868C32.5909 42.5849 32.7577 42.6645 32.9273 42.7308C33.0969 42.797 33.2749 42.8501 33.4557 42.8847C33.6364 42.9166 33.8231 42.935 34.0066 42.935C34.1933 42.935 34.3768 42.9164 34.5607 42.8847C34.7414 42.8501 34.9197 42.7972 35.089 42.7308C35.2584 42.6643 35.4224 42.5849 35.575 42.4868C35.7304 42.3912 35.8746 42.2799 36.0074 42.1579C36.1374 42.0359 36.2532 41.9006 36.3578 41.7548C36.4596 41.6116 36.5472 41.4576 36.6178 41.2958C36.6884 41.1367 36.7422 40.9696 36.7788 40.8C36.8156 40.6303 36.8324 40.4552 36.8324 40.2829C36.8324 40.1106 36.8154 39.9355 36.7788 39.7658C36.742 39.5962 36.6884 39.4289 36.6178 39.27C36.5472 39.1082 36.4596 38.9542 36.3578 38.811C36.2532 38.6652 36.1374 38.5299 36.0074 38.4079C35.8746 38.2859 35.7304 38.1746 35.575 38.079C35.4224 37.9835 35.2584 37.9013 35.089 37.835C34.9194 37.7688 34.7414 37.7157 34.5607 37.684C34.1961 37.6151 33.8203 37.6151 33.4557 37.684C33.2749 37.7159 33.0966 37.7688 32.9273 37.835C32.7577 37.9013 32.5909 37.9835 32.4383 38.079C32.2829 38.1746 32.1387 38.2859 32.0087 38.4079C31.8787 38.5299 31.7601 38.6652 31.6583 38.811C31.5564 38.9542 31.4688 39.1082 31.3983 39.27C31.3277 39.4291 31.2738 39.5962 31.2373 39.7658C31.2005 39.9355 31.1807 40.1106 31.1807 40.2829C31.1807 40.4552 31.2005 40.6303 31.2373 40.8C31.2738 40.9696 31.3277 41.1369 31.3983 41.2958Z" fill="black"/>
<path d="M127.174 53.5438H118.696V40.2829C118.696 38.8182 117.431 37.6309 115.87 37.6309H67.826V31.8704C71.1153 30.7755 73.4782 27.8277 73.4782 24.37C73.4782 19.9828 69.6749 16.4136 65 16.4136C60.3251 16.4136 56.5218 19.9828 56.5218 24.37C56.5218 27.8275 58.8847 30.7755 62.174 31.8704V37.6309H42.5798C41.0191 37.6309 39.7538 38.8182 39.7538 40.2829C39.7538 41.7476 41.0191 42.935 42.5798 42.935H113.043V56.1958V88.0219V101.283H16.9566V88.0219V56.1958V42.935H25.4348C26.9956 42.935 28.2608 41.7476 28.2608 40.2829C28.2608 38.8182 26.9956 37.6309 25.4348 37.6309H14.1304C12.5696 37.6309 11.3044 38.8182 11.3044 40.2829V53.5438H2.82598C1.26521 53.5438 0 54.7311 0 56.1958V88.0219C0 89.4866 1.26521 90.6739 2.82598 90.6739H11.3042V103.935C11.3042 105.399 12.5694 106.587 14.1301 106.587H115.869C117.43 106.587 118.695 105.399 118.695 103.935V90.6739H127.174C128.734 90.6739 129.999 89.4866 129.999 88.0219V56.1958C130 54.7311 128.735 53.5438 127.174 53.5438ZM65 21.7175C66.5582 21.7175 67.826 22.9072 67.826 24.3695C67.826 25.8319 66.5582 27.0216 65 27.0216C63.4418 27.0216 62.174 25.8319 62.174 24.3695C62.174 22.9072 63.4418 21.7175 65 21.7175ZM5.65221 85.3698V58.8481H11.3044V85.3698H5.65221ZM124.348 85.3698H118.696V58.8481H124.348V85.3698Z" fill="black"/>
<path d="M42.3913 58.8481C37.7163 58.8481 33.9131 62.4174 33.9131 66.8046C33.9131 71.1918 37.7163 74.761 42.3913 74.761C47.0662 74.761 50.8695 71.1918 50.8695 66.8046C50.8695 62.4174 47.0659 58.8481 42.3913 58.8481ZM42.3913 69.4567C40.833 69.4567 39.5653 68.2669 39.5653 66.8046C39.5653 65.3423 40.833 64.1525 42.3913 64.1525C43.9495 64.1525 45.2172 65.3423 45.2172 66.8046C45.2172 68.2669 43.9495 69.4567 42.3913 69.4567Z" fill="black"/>
<path d="M87.609 74.761C92.284 74.761 96.0872 71.1918 96.0872 66.8046C96.0872 62.4174 92.284 58.8481 87.609 58.8481C82.9341 58.8481 79.1309 62.4174 79.1309 66.8046C79.1309 71.1918 82.9344 74.761 87.609 74.761ZM87.609 64.1523C89.1673 64.1523 90.435 65.342 90.435 66.8044C90.435 68.2667 89.1673 69.4564 87.609 69.4564C86.0508 69.4564 84.7831 68.2667 84.7831 66.8044C84.7831 65.342 86.0508 64.1523 87.609 64.1523Z" fill="black"/>
<path d="M50 88.022L55.9997 80.415L61.9998 88.022L67.9998 80.415L73.9999 88.022L80 80.415" stroke="black" stroke-width="6"/>
</svg>
