<svg width="130" height="123" viewBox="0 0 130 123" fill="none" xmlns="http://www.w3.org/2000/svg">
<path d="M64.9999 29.6742C68.1215 29.6742 70.6521 27.2993 70.6521 24.3698C70.6521 21.4403 68.1215 19.0654 64.9999 19.0654C61.8782 19.0654 59.3477 21.4403 59.3477 24.3698C59.3477 27.2993 61.8782 29.6742 64.9999 29.6742Z" fill="#87DFD6"/>
<path d="M127.174 56.1958H115.87V88.0218H127.174V56.1958Z" fill="#87DFD6"/>
<path d="M14.1303 56.1958H2.82593V88.0218H14.1303V56.1958Z" fill="#87DFD6"/>
<path d="M42.5798 40.2827H25.4348H14.1304V103.935H115.87V40.2827H42.5798Z" fill="#DFF5F2"/>
<path d="M42.3915 72.1088C45.5131 72.1088 48.0437 69.7339 48.0437 66.8044C48.0437 63.8748 45.5131 61.5 42.3915 61.5C39.2698 61.5 36.7393 63.8748 36.7393 66.8044C36.7393 69.7339 39.2698 72.1088 42.3915 72.1088Z" fill="#87DFD6"/>
<path d="M87.6085 72.1088C90.7301 72.1088 93.2607 69.7339 93.2607 66.8044C93.2607 63.8748 90.7301 61.5 87.6085 61.5C84.4869 61.5 81.9563 63.8748 81.9563 66.8044C81.9563 69.7339 84.4869 72.1088 87.6085 72.1088Z" fill="#87DFD6"/>
<path d="M31.3978 41.2958C31.4684 41.4576 31.556 41.6116 31.6578 41.7548C31.7596 41.9006 31.8782 42.0359 32.0082 42.1579C32.1382 42.2799 32.2824 42.3912 32.4378 42.4868C32.5904 42.5849 32.7572 42.6645 32.9268 42.7308C33.0964 42.797 33.2744 42.8501 33.4552 42.8847C33.636 42.9166 33.8226 42.935 34.0062 42.935C34.1928 42.935 34.3763 42.9164 34.5602 42.8847C34.741 42.8501 34.9192 42.7972 35.0886 42.7308C35.2579 42.6643 35.4219 42.5849 35.5745 42.4868C35.7299 42.3912 35.8741 42.2799 36.0069 42.1579C36.1369 42.0359 36.2527 41.9006 36.3573 41.7548C36.4591 41.6116 36.5467 41.4576 36.6173 41.2958C36.6879 41.1367 36.7417 40.9696 36.7783 40.8C36.8151 40.6303 36.8319 40.4552 36.8319 40.2829C36.8319 40.1106 36.8149 39.9355 36.7783 39.7658C36.7415 39.5962 36.6879 39.4289 36.6173 39.27C36.5467 39.1082 36.4591 38.9542 36.3573 38.811C36.2527 38.6652 36.1369 38.5299 36.0069 38.4079C35.8741 38.2859 35.7299 38.1746 35.5745 38.079C35.4219 37.9835 35.2579 37.9013 35.0886 37.835C34.9189 37.7688 34.741 37.7157 34.5602 37.684C34.1956 37.6151 33.8198 37.6151 33.4552 37.684C33.2744 37.7159 33.0962 37.7688 32.9268 37.835C32.7572 37.9013 32.5904 37.9835 32.4378 38.079C32.2824 38.1746 32.1382 38.2859 32.0082 38.4079C31.8782 38.5299 31.7596 38.6652 31.6578 38.811C31.556 38.9542 31.4684 39.1082 31.3978 39.27C31.3272 39.4291 31.2734 39.5962 31.2368 39.7658C31.2 39.9355 31.1802 40.1106 31.1802 40.2829C31.1802 40.4552 31.2 40.6303 31.2368 40.8C31.2734 40.9696 31.3272 41.1369 31.3978 41.2958Z" fill="black"/>
<path d="M127.174 53.5438H118.696V40.2829C118.696 38.8182 117.431 37.6309 115.87 37.6309H67.826V31.8704C71.1153 30.7755 73.4782 27.8277 73.4782 24.37C73.4782 19.9828 69.6749 16.4136 65 16.4136C60.3251 16.4136 56.5218 19.9828 56.5218 24.37C56.5218 27.8275 58.8847 30.7755 62.174 31.8704V37.6309H42.5798C41.0191 37.6309 39.7538 38.8182 39.7538 40.2829C39.7538 41.7476 41.0191 42.935 42.5798 42.935H113.043V56.1958V88.0219V101.283H16.9566V88.0219V56.1958V42.935H25.4348C26.9956 42.935 28.2608 41.7476 28.2608 40.2829C28.2608 38.8182 26.9956 37.6309 25.4348 37.6309H14.1304C12.5696 37.6309 11.3044 38.8182 11.3044 40.2829V53.5438H2.82598C1.26521 53.5438 0 54.7311 0 56.1958V88.0219C0 89.4866 1.26521 90.6739 2.82598 90.6739H11.3042V103.935C11.3042 105.399 12.5694 106.587 14.1301 106.587H115.869C117.43 106.587 118.695 105.399 118.695 103.935V90.6739H127.174C128.734 90.6739 129.999 89.4866 129.999 88.0219V56.1958C130 54.7311 128.735 53.5438 127.174 53.5438ZM65 21.7175C66.5582 21.7175 67.826 22.9072 67.826 24.3695C67.826 25.8319 66.5582 27.0216 65 27.0216C63.4418 27.0216 62.174 25.8319 62.174 24.3695C62.174 22.9072 63.4418 21.7175 65 21.7175ZM5.65221 85.3698V58.8481H11.3044V85.3698H5.65221ZM124.348 85.3698H118.696V58.8481H124.348V85.3698Z" fill="black"/>
<path d="M42.3915 58.8481C37.7166 58.8481 33.9133 62.4174 33.9133 66.8046C33.9133 71.1918 37.7166 74.761 42.3915 74.761C47.0664 74.761 50.8697 71.1918 50.8697 66.8046C50.8697 62.4174 47.0662 58.8481 42.3915 58.8481ZM42.3915 69.4567C40.8333 69.4567 39.5655 68.2669 39.5655 66.8046C39.5655 65.3423 40.8333 64.1525 42.3915 64.1525C43.9497 64.1525 45.2175 65.3423 45.2175 66.8046C45.2175 68.2669 43.9497 69.4567 42.3915 69.4567Z" fill="black"/>
<path d="M87.6086 74.761C92.2835 74.761 96.0867 71.1918 96.0867 66.8046C96.0867 62.4174 92.2835 58.8481 87.6086 58.8481C82.9336 58.8481 79.1304 62.4174 79.1304 66.8046C79.1304 71.1918 82.9339 74.761 87.6086 74.761ZM87.6086 64.1523C89.1668 64.1523 90.4345 65.342 90.4345 66.8044C90.4345 68.2667 89.1668 69.4564 87.6086 69.4564C86.0503 69.4564 84.7826 68.2667 84.7826 66.8044C84.7826 65.342 86.0503 64.1523 87.6086 64.1523Z" fill="black"/>
<path d="M50.0478 88.0104L79.9522 82.2718" stroke="black" stroke-width="5"/>
</svg>
