<svg width="131" height="123" viewBox="0 0 131 123" fill="none" xmlns="http://www.w3.org/2000/svg">
<g clip-path="url(#clip0_440_686)">
<path d="M65.5004 29.6742C68.622 29.6742 71.1526 27.2993 71.1526 24.3698C71.1526 21.4403 68.622 19.0654 65.5004 19.0654C62.3787 19.0654 59.8481 21.4403 59.8481 24.3698C59.8481 27.2993 62.3787 29.6742 65.5004 29.6742Z" fill="#87DFD6"/>
<path d="M127.674 56.1958H116.37V88.0218H127.674V56.1958Z" fill="#87DFD6"/>
<path d="M14.6306 56.1958H3.32617V88.0218H14.6306V56.1958Z" fill="#87DFD6"/>
<path d="M40.8772 39.0283H23.7321H12.4277V102.68H114.167V39.0283H40.8772Z" fill="#DFF5F2"/>
<path d="M50.5 83.9019H80.5" stroke="black" stroke-width="5"/>
<path d="M42.8915 72.1088C46.0131 72.1088 48.5437 69.7339 48.5437 66.8044C48.5437 63.8748 46.0131 61.5 42.8915 61.5C39.7698 61.5 37.2393 63.8748 37.2393 66.8044C37.2393 69.7339 39.7698 72.1088 42.8915 72.1088Z" fill="#87DFD6"/>
<path d="M88.1087 72.1088C91.2304 72.1088 93.761 69.7339 93.761 66.8044C93.761 63.8748 91.2304 61.5 88.1087 61.5C84.9871 61.5 82.4565 63.8748 82.4565 66.8044C82.4565 69.7339 84.9871 72.1088 88.1087 72.1088Z" fill="#87DFD6"/>
<path d="M31.8978 41.2958C31.9684 41.4576 32.056 41.6116 32.1578 41.7548C32.2596 41.9006 32.3782 42.0359 32.5082 42.1579C32.6382 42.2799 32.7824 42.3912 32.9378 42.4868C33.0904 42.5849 33.2572 42.6645 33.4268 42.7308C33.5964 42.797 33.7744 42.8501 33.9552 42.8847C34.136 42.9166 34.3226 42.935 34.5062 42.935C34.6928 42.935 34.8763 42.9164 35.0602 42.8847C35.241 42.8501 35.4192 42.7972 35.5886 42.7308C35.7579 42.6643 35.9219 42.5849 36.0745 42.4868C36.2299 42.3912 36.3741 42.2799 36.5069 42.1579C36.6369 42.0359 36.7527 41.9006 36.8573 41.7548C36.9591 41.6116 37.0467 41.4576 37.1173 41.2958C37.1879 41.1367 37.2417 40.9696 37.2783 40.8C37.3151 40.6303 37.3319 40.4552 37.3319 40.2829C37.3319 40.1106 37.3149 39.9355 37.2783 39.7658C37.2415 39.5962 37.1879 39.4289 37.1173 39.27C37.0467 39.1082 36.9591 38.9542 36.8573 38.811C36.7527 38.6652 36.6369 38.5299 36.5069 38.4079C36.3741 38.2859 36.2299 38.1746 36.0745 38.079C35.9219 37.9835 35.7579 37.9013 35.5886 37.835C35.4189 37.7688 35.241 37.7157 35.0602 37.684C34.6956 37.6151 34.3198 37.6151 33.9552 37.684C33.7744 37.7159 33.5962 37.7688 33.4268 37.835C33.2572 37.9013 33.0904 37.9835 32.9378 38.079C32.7824 38.1746 32.6382 38.2859 32.5082 38.4079C32.3782 38.5299 32.2596 38.6652 32.1578 38.811C32.056 38.9542 31.9684 39.1082 31.8978 39.27C31.8272 39.4291 31.7734 39.5962 31.7368 39.7658C31.7 39.9355 31.6802 40.1106 31.6802 40.2829C31.6802 40.4552 31.7 40.6303 31.7368 40.8C31.7734 40.9696 31.8272 41.1369 31.8978 41.2958Z" fill="black"/>
<path d="M127.674 53.5438H119.196V40.2829C119.196 38.8182 117.931 37.6309 116.37 37.6309H68.326V31.8704C71.6153 30.7755 73.9782 27.8277 73.9782 24.37C73.9782 19.9828 70.1749 16.4136 65.5 16.4136C60.8251 16.4136 57.0218 19.9828 57.0218 24.37C57.0218 27.8275 59.3847 30.7755 62.674 31.8704V37.6309H43.0798C41.5191 37.6309 40.2538 38.8182 40.2538 40.2829C40.2538 41.7476 41.5191 42.935 43.0798 42.935H113.543V56.1958V88.0219V101.283H17.4566V88.0219V56.1958V42.935H25.9348C27.4956 42.935 28.7608 41.7476 28.7608 40.2829C28.7608 38.8182 27.4956 37.6309 25.9348 37.6309H14.6304C13.0696 37.6309 11.8044 38.8182 11.8044 40.2829V53.5438H3.32598C1.76521 53.5438 0.5 54.7311 0.5 56.1958V88.0219C0.5 89.4866 1.76521 90.6739 3.32598 90.6739H11.8042V103.935C11.8042 105.399 13.0694 106.587 14.6301 106.587H116.369C117.93 106.587 119.195 105.399 119.195 103.935V90.6739H127.674C129.234 90.6739 130.499 89.4866 130.499 88.0219V56.1958C130.5 54.7311 129.235 53.5438 127.674 53.5438ZM65.5 21.7175C67.0582 21.7175 68.326 22.9072 68.326 24.3695C68.326 25.8319 67.0582 27.0216 65.5 27.0216C63.9418 27.0216 62.674 25.8319 62.674 24.3695C62.674 22.9072 63.9418 21.7175 65.5 21.7175ZM6.15221 85.3698V58.8481H11.8044V85.3698H6.15221ZM124.848 85.3698H119.196V58.8481H124.848V85.3698Z" fill="black"/>
<path d="M42.8913 58.8481C38.2163 58.8481 34.4131 62.4174 34.4131 66.8046C34.4131 71.1918 38.2163 74.761 42.8913 74.761C47.5662 74.761 51.3695 71.1918 51.3695 66.8046C51.3695 62.4174 47.5659 58.8481 42.8913 58.8481ZM42.8913 69.4567C41.333 69.4567 40.0653 68.2669 40.0653 66.8046C40.0653 65.3423 41.333 64.1525 42.8913 64.1525C44.4495 64.1525 45.7172 65.3423 45.7172 66.8046C45.7172 68.2669 44.4495 69.4567 42.8913 69.4567Z" fill="black"/>
<path d="M88.1086 74.761C92.7835 74.761 96.5867 71.1918 96.5867 66.8046C96.5867 62.4174 92.7835 58.8481 88.1086 58.8481C83.4336 58.8481 79.6304 62.4174 79.6304 66.8046C79.6304 71.1918 83.4339 74.761 88.1086 74.761ZM88.1086 64.1523C89.6668 64.1523 90.9345 65.342 90.9345 66.8044C90.9345 68.2667 89.6668 69.4564 88.1086 69.4564C86.5503 69.4564 85.2826 68.2667 85.2826 66.8044C85.2826 65.342 86.5503 64.1523 88.1086 64.1523Z" fill="black"/>
</g>
<defs>
<clipPath id="clip0_440_686">
<rect width="130" height="122" fill="white" transform="translate(0.5 0.5)"/>
</clipPath>
</defs>
</svg>
