<svg width="130" height="122" viewBox="0 0 130 122" fill="none" xmlns="http://www.w3.org/2000/svg">
<path d="M64.9999 29.1742C68.1215 29.1742 70.6521 26.7993 70.6521 23.8698C70.6521 20.9403 68.1215 18.5654 64.9999 18.5654C61.8782 18.5654 59.3477 20.9403 59.3477 23.8698C59.3477 26.7993 61.8782 29.1742 64.9999 29.1742Z" fill="#87DFD6"/>
<path d="M127.175 55.6958H115.87V87.5218H127.175V55.6958Z" fill="#87DFD6"/>
<path d="M14.1306 55.6958H2.82617V87.5218H14.1306V55.6958Z" fill="#87DFD6"/>
<path d="M42.5798 39.7827H25.4348H14.1304V103.435H115.87V39.7827H42.5798Z" fill="#DFF5F2"/>
<path d="M42.3915 71.6088C45.5131 71.6088 48.0437 69.2339 48.0437 66.3044C48.0437 63.3748 45.5131 61 42.3915 61C39.2698 61 36.7393 63.3748 36.7393 66.3044C36.7393 69.2339 39.2698 71.6088 42.3915 71.6088Z" fill="#87DFD6"/>
<path d="M87.6087 71.6088C90.7304 71.6088 93.261 69.2339 93.261 66.3044C93.261 63.3748 90.7304 61 87.6087 61C84.4871 61 81.9565 63.3748 81.9565 66.3044C81.9565 69.2339 84.4871 71.6088 87.6087 71.6088Z" fill="#87DFD6"/>
<path d="M31.3978 40.7958C31.4684 40.9576 31.556 41.1116 31.6578 41.2548C31.7596 41.4006 31.8782 41.5359 32.0082 41.6579C32.1382 41.7799 32.2824 41.8912 32.4378 41.9868C32.5904 42.0849 32.7572 42.1645 32.9268 42.2308C33.0964 42.297 33.2744 42.3501 33.4552 42.3847C33.636 42.4166 33.8226 42.435 34.0062 42.435C34.1928 42.435 34.3763 42.4164 34.5602 42.3847C34.741 42.3501 34.9192 42.2972 35.0886 42.2308C35.2579 42.1643 35.4219 42.0849 35.5745 41.9868C35.7299 41.8912 35.8741 41.7799 36.0069 41.6579C36.1369 41.5359 36.2527 41.4006 36.3573 41.2548C36.4591 41.1116 36.5467 40.9576 36.6173 40.7958C36.6879 40.6367 36.7417 40.4696 36.7783 40.3C36.8151 40.1303 36.8319 39.9552 36.8319 39.7829C36.8319 39.6106 36.8149 39.4355 36.7783 39.2658C36.7415 39.0962 36.6879 38.9289 36.6173 38.77C36.5467 38.6082 36.4591 38.4542 36.3573 38.311C36.2527 38.1652 36.1369 38.0299 36.0069 37.9079C35.8741 37.7859 35.7299 37.6746 35.5745 37.579C35.4219 37.4835 35.2579 37.4013 35.0886 37.335C34.9189 37.2688 34.741 37.2157 34.5602 37.184C34.1956 37.1151 33.8198 37.1151 33.4552 37.184C33.2744 37.2159 33.0962 37.2688 32.9268 37.335C32.7572 37.4013 32.5904 37.4835 32.4378 37.579C32.2824 37.6746 32.1382 37.7859 32.0082 37.9079C31.8782 38.0299 31.7596 38.1652 31.6578 38.311C31.556 38.4542 31.4684 38.6082 31.3978 38.77C31.3272 38.9291 31.2734 39.0962 31.2368 39.2658C31.2 39.4355 31.1802 39.6106 31.1802 39.7829C31.1802 39.9552 31.2 40.1303 31.2368 40.3C31.2734 40.4696 31.3272 40.6369 31.3978 40.7958Z" fill="black"/>
<path d="M127.174 53.0438H118.696V39.7829C118.696 38.3182 117.431 37.1309 115.87 37.1309H67.826V31.3704C71.1153 30.2755 73.4782 27.3277 73.4782 23.87C73.4782 19.4828 69.6749 15.9136 65 15.9136C60.3251 15.9136 56.5218 19.4828 56.5218 23.87C56.5218 27.3275 58.8847 30.2755 62.174 31.3704V37.1309H42.5798C41.0191 37.1309 39.7538 38.3182 39.7538 39.7829C39.7538 41.2476 41.0191 42.435 42.5798 42.435H113.043V55.6958V87.5219V100.783H16.9566V87.5219V55.6958V42.435H25.4348C26.9956 42.435 28.2608 41.2476 28.2608 39.7829C28.2608 38.3182 26.9956 37.1309 25.4348 37.1309H14.1304C12.5696 37.1309 11.3044 38.3182 11.3044 39.7829V53.0438H2.82598C1.26521 53.0438 0 54.2311 0 55.6958V87.5219C0 88.9866 1.26521 90.1739 2.82598 90.1739H11.3042V103.435C11.3042 104.899 12.5694 106.087 14.1301 106.087H115.869C117.43 106.087 118.695 104.899 118.695 103.435V90.1739H127.174C128.734 90.1739 129.999 88.9866 129.999 87.5219V55.6958C130 54.2311 128.735 53.0438 127.174 53.0438ZM65 21.2175C66.5582 21.2175 67.826 22.4072 67.826 23.8695C67.826 25.3319 66.5582 26.5216 65 26.5216C63.4418 26.5216 62.174 25.3319 62.174 23.8695C62.174 22.4072 63.4418 21.2175 65 21.2175ZM5.65221 84.8698V58.3481H11.3044V84.8698H5.65221ZM124.348 84.8698H118.696V58.3481H124.348V84.8698Z" fill="black"/>
<path d="M42.3913 58.3481C37.7163 58.3481 33.9131 61.9174 33.9131 66.3046C33.9131 70.6918 37.7163 74.261 42.3913 74.261C47.0662 74.261 50.8695 70.6918 50.8695 66.3046C50.8695 61.9174 47.0659 58.3481 42.3913 58.3481ZM42.3913 68.9567C40.833 68.9567 39.5653 67.7669 39.5653 66.3046C39.5653 64.8423 40.833 63.6525 42.3913 63.6525C43.9495 63.6525 45.2172 64.8423 45.2172 66.3046C45.2172 67.7669 43.9495 68.9567 42.3913 68.9567Z" fill="black"/>
<path d="M87.6086 74.261C92.2835 74.261 96.0867 70.6918 96.0867 66.3046C96.0867 61.9174 92.2835 58.3481 87.6086 58.3481C82.9336 58.3481 79.1304 61.9174 79.1304 66.3046C79.1304 70.6918 82.9339 74.261 87.6086 74.261ZM87.6086 63.6523C89.1668 63.6523 90.4345 64.842 90.4345 66.3044C90.4345 67.7667 89.1668 68.9564 87.6086 68.9564C86.0503 68.9564 84.7826 67.7667 84.7826 66.3044C84.7826 64.842 86.0503 63.6523 87.6086 63.6523Z" fill="black"/>
<path d="M50 86.6931C62.1769 79.6612 68.7307 79.2854 80 86.6931" stroke="black" stroke-width="5"/>
</svg>
